<svg width="22" height="21" viewBox="0 0 22 21" fill="none" xmlns="http://www.w3.org/2000/svg">
<path d="M11 0C5.20104 0 0.5 4.70099 0.5 10.5C0.5 16.299 5.20104 21 11 21C16.799 21 21.5 16.299 21.5 10.5C21.5 4.70104 16.799 0 11 0ZM16.5086 4.99139C19.2796 7.76238 19.4723 11.9976 17.384 14.968L6.532 4.116C9.50434 2.02633 13.7391 2.22198 16.5086 4.99139ZM5.49139 16.0086C2.72041 13.2376 2.52769 9.00235 4.61596 6.03204L15.468 16.884C12.4957 18.9737 8.26086 18.7781 5.49139 16.0086Z" fill="#C03221"/>
</svg>
